<svg width="3047" height="631" viewBox="0 0 3047 631" fill="none" xmlns="http://www.w3.org/2000/svg">
    <g clip-path="url(#clip0_1_426)">
        <path d="M0 271.3C207 271.3 329 301.3 540 301.3V329.3C329 329.3 210 359.3 0 359.3V271.3Z" fill="url(#paint0_linear_1_426)"/>
        <path d="M0 158.3C212 158.3 324 246.3 540 261.3V289.3C329 289.3 208 246.3 0 246.3V158.3Z" fill="url(#paint1_linear_1_426)"/>
        <path d="M0 65.2996C0 54.2539 8.96864 45.2475 20.0011 45.7883C210.842 55.1434 327.642 195.939 521.619 219.449C531.969 220.704 540 229.334 540 239.76V246.3C391 246.3 209 133.3 0 133.3V65.2996Z" fill="url(#paint2_linear_1_426)"/>
        <path d="M0 472.3C212 472.3 324 384.3 540 369.3V341.3C329 341.3 208 384.3 0 384.3V472.3Z" fill="url(#paint3_linear_1_426)"/>
        <path d="M0 565.3C0 576.345 8.96849 585.351 20.0013 584.817C210.903 575.574 327.717 436.399 521.806 411.291C532.075 409.963 540 401.366 540 391.012V384.3C391 384.3 209 497.3 0 497.3V565.3Z" fill="url(#paint4_linear_1_426)"/>
    </g>
    <g clip-path="url(#clip1_1_426)">
        <path d="M3031.97 144.6C3039.11 144.6 3043.95 151.864 3041.2 158.451L2846.75 624.451C2845.19 628.175 2841.56 630.6 2837.52 630.6H2788.4C2781.26 630.6 2776.42 623.332 2779.17 616.744L2835.06 483.012C2838.6 474.545 2838.67 465.026 2835.26 456.507L2715.87 158.317C2713.24 151.748 2718.08 144.6 2725.16 144.6H2779.61C2783.8 144.6 2787.55 147.209 2789 151.138L2879.58 396.6L2973.72 151.021C2975.2 147.153 2978.92 144.6 2983.06 144.6H3031.97Z" fill="#0F111F"/>
        <path d="M2688.76 190.4C2688.76 195.923 2684.29 200.4 2678.76 200.4H2627.56V465.2C2627.56 470.723 2623.09 475.2 2617.56 475.2H2568.56C2563.04 475.2 2558.56 470.723 2558.56 465.2V200.4H2529.56C2524.04 200.4 2519.56 195.923 2519.56 190.4V154.6C2519.56 149.077 2524.04 144.6 2529.56 144.6H2558.56V121.2C2558.56 83.2 2568.56 55.6 2588.56 38.4C2607.36 22.1878 2635.82 13.4425 2673.96 12.1641C2679.48 11.9791 2683.96 16.4772 2683.96 22V59C2683.96 64.5228 2679.48 68.9441 2673.97 69.3414C2658.42 70.4632 2647.15 74.3494 2640.16 81C2631.76 88.6 2627.56 102 2627.56 121.2V144.6H2678.76C2684.29 144.6 2688.76 149.077 2688.76 154.6V190.4Z" fill="#0F111F"/>
        <path d="M2426.76 100.8C2414.36 100.8 2403.96 96.6002 2395.56 88.2002C2387.16 79.8002 2382.96 69.4002 2382.96 57.0002C2382.96 44.6002 2387.16 34.2002 2395.56 25.8002C2403.96 17.4002 2414.36 13.2002 2426.76 13.2002C2438.76 13.2002 2448.96 17.4002 2457.36 25.8002C2465.76 34.2002 2469.96 44.6002 2469.96 57.0002C2469.96 69.4002 2465.76 79.8002 2457.36 88.2002C2448.96 96.6002 2438.76 100.8 2426.76 100.8ZM2450.36 144.6C2455.88 144.6 2460.36 149.077 2460.36 154.6V465.2C2460.36 470.723 2455.88 475.2 2450.36 475.2H2401.96C2396.44 475.2 2391.96 470.723 2391.96 465.2V154.6C2391.96 149.077 2396.44 144.6 2401.96 144.6H2450.36Z" fill="#0F111F"/>
        <path d="M2170.14 419.4H2310.14C2315.66 419.4 2320.14 423.877 2320.14 429.4V465.2C2320.14 470.723 2315.66 475.2 2310.14 475.2H2100.94C2095.42 475.2 2090.94 470.723 2090.94 465.2V430.273C2090.94 423.191 2093.09 416.276 2097.1 410.441L2241.54 200.4H2100.94C2095.42 200.4 2090.94 195.923 2090.94 190.4V154.6C2090.94 149.077 2095.42 144.6 2100.94 144.6H2310.14C2315.66 144.6 2320.14 149.077 2320.14 154.6V189.563C2320.14 196.622 2318 203.517 2314.02 209.341L2170.14 419.4Z" fill="#0F111F"/>
        <path d="M2042.23 301.8C2042.23 310.818 2041.8 319.201 2040.96 326.95C2040.42 331.834 2036.21 335.4 2031.3 335.4H1787.23C1789.23 361.8 1799.03 383 1816.63 399C1834.23 415 1855.83 423 1881.43 423C1915.97 423 1941 409.43 1956.51 382.29C1958.4 378.985 1961.84 376.8 1965.64 376.8H2019.41C2026.22 376.8 2031.03 383.466 2028.34 389.722C2017.76 414.358 2001.19 435.051 1978.63 451.8C1952.63 471 1920.23 480.6 1881.43 480.6C1849.83 480.6 1821.43 473.6 1796.23 459.6C1771.43 445.2 1751.83 425.2 1737.43 399.6C1723.43 373.6 1716.43 343.6 1716.43 309.6C1716.43 275.6 1723.23 245.8 1736.83 220.2C1750.83 194.2 1770.23 174.2 1795.03 160.2C1820.23 146.2 1849.03 139.2 1881.43 139.2C1912.63 139.2 1940.43 146 1964.83 159.6C1989.23 173.2 2008.23 192.4 2021.83 217.2C2035.43 241.6 2042.23 269.8 2042.23 301.8ZM1970.83 280.2C1970.43 255 1961.43 234.8 1943.83 219.6C1926.23 204.4 1904.43 196.8 1878.43 196.8C1854.83 196.8 1834.63 204.4 1817.83 219.6C1801.03 234.4 1791.03 254.6 1787.83 280.2H1970.83Z" fill="#0F111F"/>
        <path d="M1671.91 301.8C1671.91 310.818 1671.49 319.201 1670.64 326.95C1670.11 331.834 1665.9 335.4 1660.99 335.4H1416.91C1418.91 361.8 1428.71 383 1446.31 399C1463.91 415 1485.51 423 1511.11 423C1545.66 423 1570.69 409.43 1586.2 382.29C1588.09 378.985 1591.52 376.8 1595.33 376.8H1649.1C1655.91 376.8 1660.72 383.466 1658.03 389.722C1647.45 414.358 1630.87 435.051 1608.31 451.8C1582.31 471 1549.91 480.6 1511.11 480.6C1479.51 480.6 1451.11 473.6 1425.91 459.6C1401.11 445.2 1381.51 425.2 1367.11 399.6C1353.11 373.6 1346.11 343.6 1346.11 309.6C1346.11 275.6 1352.91 245.8 1366.51 220.2C1380.51 194.2 1399.91 174.2 1424.71 160.2C1449.91 146.2 1478.71 139.2 1511.11 139.2C1542.31 139.2 1570.11 146 1594.51 159.6C1618.91 173.2 1637.91 192.4 1651.51 217.2C1665.11 241.6 1671.91 269.8 1671.91 301.8ZM1600.51 280.2C1600.11 255 1591.11 234.8 1573.51 219.6C1555.91 204.4 1534.11 196.8 1508.11 196.8C1484.51 196.8 1464.31 204.4 1447.51 219.6C1430.71 234.4 1420.71 254.6 1417.51 280.2H1600.51Z" fill="#0F111F"/>
        <path d="M1215.04 192.6C1225.04 175.8 1238.24 162.8 1254.64 153.6C1268.94 145.431 1285.41 140.738 1304.05 139.52C1309.56 139.16 1314.04 143.677 1314.04 149.2V200C1314.04 205.523 1309.56 210 1304.04 210H1296.64C1269.84 210 1249.44 216.8 1235.44 230.4C1221.84 244 1215.04 267.6 1215.04 301.2V465.2C1215.04 470.723 1210.56 475.2 1205.04 475.2H1156.64C1151.12 475.2 1146.64 470.723 1146.64 465.2V154.6C1146.64 149.077 1151.12 144.6 1156.64 144.6H1205.04C1210.56 144.6 1215.04 149.077 1215.04 154.6V192.6Z" fill="#0F111F"/>
        <path d="M808.4 193.8C820 177.8 835.8 164.8 855.8 154.8C876.2 144.4 898.8 139.2 923.6 139.2C952.8 139.2 979.2 146.2 1002.8 160.2C1026.4 174.2 1045 194.2 1058.6 220.2C1072.2 245.8 1079 275.2 1079 308.4C1079 341.6 1072.2 371.4 1058.6 397.8C1045 423.8 1026.2 444.2 1002.2 459C978.6 473.4 952.4 480.6 923.6 480.6C898 480.6 875.2 475.6 855.2 465.6C835.6 455.6 820 442.8 808.4 427.2V465.2C808.4 470.723 803.923 475.2 798.4 475.2H750C744.477 475.2 740 470.723 740 465.2V41.2002C740 35.6773 744.477 31.2002 750 31.2002H798.4C803.923 31.2002 808.4 35.6773 808.4 41.2002V193.8ZM1009.4 308.4C1009.4 285.6 1004.6 266 995 249.6C985.8 232.8 973.4 220.2 957.8 211.8C942.6 203 926.2 198.6 908.6 198.6C891.4 198.6 875 203 859.4 211.8C844.2 220.6 831.8 233.4 822.2 250.2C813 267 808.4 286.8 808.4 309.6C808.4 332.4 813 352.4 822.2 369.6C831.8 386.4 844.2 399.2 859.4 408C875 416.8 891.4 421.2 908.6 421.2C926.2 421.2 942.6 416.8 957.8 408C973.4 398.8 985.8 385.6 995 368.4C1004.6 351.2 1009.4 331.2 1009.4 308.4Z" fill="#0F111F"/>
    </g>
    <defs>
        <linearGradient id="paint0_linear_1_426" x1="-3.22316e-06" y1="315.3" x2="540" y2="315.3" gradientUnits="userSpaceOnUse">
            <stop stop-color="#6F110B"/>
            <stop offset="0.375" stop-color="#965F17"/>
            <stop offset="1" stop-color="#84CD4B"/>
        </linearGradient>
        <linearGradient id="paint1_linear_1_426" x1="-3.22316e-06" y1="315.3" x2="540" y2="315.3" gradientUnits="userSpaceOnUse">
            <stop stop-color="#6F110B"/>
            <stop offset="0.375" stop-color="#965F17"/>
            <stop offset="1" stop-color="#84CD4B"/>
        </linearGradient>
        <linearGradient id="paint2_linear_1_426" x1="-3.22316e-06" y1="315.3" x2="540" y2="315.3" gradientUnits="userSpaceOnUse">
            <stop stop-color="#6F110B"/>
            <stop offset="0.375" stop-color="#965F17"/>
            <stop offset="1" stop-color="#84CD4B"/>
        </linearGradient>
        <linearGradient id="paint3_linear_1_426" x1="-3.22316e-06" y1="315.3" x2="540" y2="315.3" gradientUnits="userSpaceOnUse">
            <stop stop-color="#6F110B"/>
            <stop offset="0.375" stop-color="#965F17"/>
            <stop offset="1" stop-color="#84CD4B"/>
        </linearGradient>
        <linearGradient id="paint4_linear_1_426" x1="-3.22316e-06" y1="315.3" x2="540" y2="315.3" gradientUnits="userSpaceOnUse">
            <stop stop-color="#6F110B"/>
            <stop offset="0.375" stop-color="#965F17"/>
            <stop offset="1" stop-color="#84CD4B"/>
        </linearGradient>
        <clipPath id="clip0_1_426">
            <rect width="540" height="540" fill="white" transform="translate(0 45.2998)"/>
        </clipPath>
        <clipPath id="clip1_1_426">
            <rect width="2306.98" height="618.6" fill="white" transform="translate(740 12)"/>
        </clipPath>
    </defs>
</svg>
