<svg width="3047" height="642" viewBox="0 0 3047 642" fill="none" xmlns="http://www.w3.org/2000/svg">
<g clip-path="url(#clip0_1_426)">
<path d="M0 276.8C207 276.8 329 306.8 540 306.8V334.8C329 334.8 210 364.8 0 364.8V276.8Z" fill="url(#paint0_linear_1_426)"/>
<path d="M0 163.8C212 163.8 324 251.8 540 266.8V294.8C329 294.8 208 251.8 0 251.8V163.8Z" fill="url(#paint1_linear_1_426)"/>
<path d="M0 70.7996C0 59.7539 8.96864 50.7475 20.0011 51.2883C210.842 60.6434 327.642 201.439 521.619 224.949C531.969 226.204 540 234.834 540 245.26V251.8C391 251.8 209 138.8 0 138.8V70.7996Z" fill="url(#paint2_linear_1_426)"/>
<path d="M0 477.8C212 477.8 324 389.8 540 374.8V346.8C329 346.8 208 389.8 0 389.8V477.8Z" fill="url(#paint3_linear_1_426)"/>
<path d="M0 570.8C0 581.845 8.96849 590.851 20.0013 590.317C210.903 581.074 327.717 441.899 521.806 416.791C532.075 415.463 540 406.866 540 396.512V389.8C391 389.8 209 502.8 0 502.8V570.8Z" fill="url(#paint4_linear_1_426)"/>
</g>
<g clip-path="url(#clip1_1_426)">
<path d="M3031.97 155.6C3039.11 155.6 3043.95 162.864 3041.2 169.451L2846.75 635.451C2845.19 639.175 2841.56 641.6 2837.52 641.6H2788.4C2781.26 641.6 2776.42 634.332 2779.17 627.744L2835.06 494.012C2838.6 485.545 2838.67 476.026 2835.26 467.507L2715.87 169.317C2713.24 162.748 2718.08 155.6 2725.16 155.6H2779.61C2783.8 155.6 2787.55 158.209 2789 162.138L2879.58 407.6L2973.72 162.021C2975.2 158.153 2978.92 155.6 2983.06 155.6H3031.97Z" fill="#111218"/>
<path d="M2688.76 201.4C2688.76 206.923 2684.29 211.4 2678.76 211.4H2627.56V476.2C2627.56 481.723 2623.09 486.2 2617.56 486.2H2568.56C2563.04 486.2 2558.56 481.723 2558.56 476.2V211.4H2529.56C2524.04 211.4 2519.56 206.923 2519.56 201.4V165.6C2519.56 160.077 2524.04 155.6 2529.56 155.6H2558.56V132.2C2558.56 94.2 2568.56 66.6 2588.56 49.4C2607.36 33.1878 2635.82 24.4425 2673.96 23.1641C2679.48 22.9791 2683.96 27.4772 2683.96 33V70C2683.96 75.5228 2679.48 79.9441 2673.97 80.3414C2658.42 81.4632 2647.15 85.3494 2640.16 92C2631.76 99.6 2627.56 113 2627.56 132.2V155.6H2678.76C2684.29 155.6 2688.76 160.077 2688.76 165.6V201.4Z" fill="#111218"/>
<path d="M2426.76 111.8C2414.36 111.8 2403.96 107.6 2395.56 99.2002C2387.16 90.8002 2382.96 80.4002 2382.96 68.0002C2382.96 55.6002 2387.16 45.2002 2395.56 36.8002C2403.96 28.4002 2414.36 24.2002 2426.76 24.2002C2438.76 24.2002 2448.96 28.4002 2457.36 36.8002C2465.76 45.2002 2469.96 55.6002 2469.96 68.0002C2469.96 80.4002 2465.76 90.8002 2457.36 99.2002C2448.96 107.6 2438.76 111.8 2426.76 111.8ZM2450.36 155.6C2455.88 155.6 2460.36 160.077 2460.36 165.6V476.2C2460.36 481.723 2455.88 486.2 2450.36 486.2H2401.96C2396.44 486.2 2391.96 481.723 2391.96 476.2V165.6C2391.96 160.077 2396.44 155.6 2401.96 155.6H2450.36Z" fill="#111218"/>
<path d="M2170.14 430.4H2310.14C2315.66 430.4 2320.14 434.877 2320.14 440.4V476.2C2320.14 481.723 2315.66 486.2 2310.14 486.2H2100.94C2095.42 486.2 2090.94 481.723 2090.94 476.2V441.273C2090.94 434.191 2093.09 427.276 2097.1 421.441L2241.54 211.4H2100.94C2095.42 211.4 2090.94 206.923 2090.94 201.4V165.6C2090.94 160.077 2095.42 155.6 2100.94 155.6H2310.14C2315.66 155.6 2320.14 160.077 2320.14 165.6V200.563C2320.14 207.622 2318 214.517 2314.02 220.341L2170.14 430.4Z" fill="#111218"/>
<path d="M2042.23 312.8C2042.23 321.818 2041.8 330.201 2040.96 337.95C2040.42 342.834 2036.21 346.4 2031.3 346.4H1787.23C1789.23 372.8 1799.03 394 1816.63 410C1834.23 426 1855.83 434 1881.43 434C1915.97 434 1941 420.43 1956.51 393.29C1958.4 389.985 1961.84 387.8 1965.64 387.8H2019.41C2026.22 387.8 2031.03 394.466 2028.34 400.722C2017.76 425.358 2001.19 446.051 1978.63 462.8C1952.63 482 1920.23 491.6 1881.43 491.6C1849.83 491.6 1821.43 484.6 1796.23 470.6C1771.43 456.2 1751.83 436.2 1737.43 410.6C1723.43 384.6 1716.43 354.6 1716.43 320.6C1716.43 286.6 1723.23 256.8 1736.83 231.2C1750.83 205.2 1770.23 185.2 1795.03 171.2C1820.23 157.2 1849.03 150.2 1881.43 150.2C1912.63 150.2 1940.43 157 1964.83 170.6C1989.23 184.2 2008.23 203.4 2021.83 228.2C2035.43 252.6 2042.23 280.8 2042.23 312.8ZM1970.83 291.2C1970.43 266 1961.43 245.8 1943.83 230.6C1926.23 215.4 1904.43 207.8 1878.43 207.8C1854.83 207.8 1834.63 215.4 1817.83 230.6C1801.03 245.4 1791.03 265.6 1787.83 291.2H1970.83Z" fill="#111218"/>
<path d="M1671.91 312.8C1671.91 321.818 1671.49 330.201 1670.64 337.95C1670.11 342.834 1665.9 346.4 1660.99 346.4H1416.91C1418.91 372.8 1428.71 394 1446.31 410C1463.91 426 1485.51 434 1511.11 434C1545.66 434 1570.69 420.43 1586.2 393.29C1588.09 389.985 1591.52 387.8 1595.33 387.8H1649.1C1655.91 387.8 1660.72 394.466 1658.03 400.722C1647.45 425.358 1630.87 446.051 1608.31 462.8C1582.31 482 1549.91 491.6 1511.11 491.6C1479.51 491.6 1451.11 484.6 1425.91 470.6C1401.11 456.2 1381.51 436.2 1367.11 410.6C1353.11 384.6 1346.11 354.6 1346.11 320.6C1346.11 286.6 1352.91 256.8 1366.51 231.2C1380.51 205.2 1399.91 185.2 1424.71 171.2C1449.91 157.2 1478.71 150.2 1511.11 150.2C1542.31 150.2 1570.11 157 1594.51 170.6C1618.91 184.2 1637.91 203.4 1651.51 228.2C1665.11 252.6 1671.91 280.8 1671.91 312.8ZM1600.51 291.2C1600.11 266 1591.11 245.8 1573.51 230.6C1555.91 215.4 1534.11 207.8 1508.11 207.8C1484.51 207.8 1464.31 215.4 1447.51 230.6C1430.71 245.4 1420.71 265.6 1417.51 291.2H1600.51Z" fill="#111218"/>
<path d="M1215.04 203.6C1225.04 186.8 1238.24 173.8 1254.64 164.6C1268.94 156.431 1285.41 151.738 1304.05 150.52C1309.56 150.16 1314.04 154.677 1314.04 160.2V211C1314.04 216.523 1309.56 221 1304.04 221H1296.64C1269.84 221 1249.44 227.8 1235.44 241.4C1221.84 255 1215.04 278.6 1215.04 312.2V476.2C1215.04 481.723 1210.56 486.2 1205.04 486.2H1156.64C1151.12 486.2 1146.64 481.723 1146.64 476.2V165.6C1146.64 160.077 1151.12 155.6 1156.64 155.6H1205.04C1210.56 155.6 1215.04 160.077 1215.04 165.6V203.6Z" fill="#111218"/>
<path d="M808.4 204.8C820 188.8 835.8 175.8 855.8 165.8C876.2 155.4 898.8 150.2 923.6 150.2C952.8 150.2 979.2 157.2 1002.8 171.2C1026.4 185.2 1045 205.2 1058.6 231.2C1072.2 256.8 1079 286.2 1079 319.4C1079 352.6 1072.2 382.4 1058.6 408.8C1045 434.8 1026.2 455.2 1002.2 470C978.6 484.4 952.4 491.6 923.6 491.6C898 491.6 875.2 486.6 855.2 476.6C835.6 466.6 820 453.8 808.4 438.2V476.2C808.4 481.723 803.923 486.2 798.4 486.2H750C744.477 486.2 740 481.723 740 476.2V52.2002C740 46.6773 744.477 42.2002 750 42.2002H798.4C803.923 42.2002 808.4 46.6773 808.4 52.2002V204.8ZM1009.4 319.4C1009.4 296.6 1004.6 277 995 260.6C985.8 243.8 973.4 231.2 957.8 222.8C942.6 214 926.2 209.6 908.6 209.6C891.4 209.6 875 214 859.4 222.8C844.2 231.6 831.8 244.4 822.2 261.2C813 278 808.4 297.8 808.4 320.6C808.4 343.4 813 363.4 822.2 380.6C831.8 397.4 844.2 410.2 859.4 419C875 427.8 891.4 432.2 908.6 432.2C926.2 432.2 942.6 427.8 957.8 419C973.4 409.8 985.8 396.6 995 379.4C1004.6 362.2 1009.4 342.2 1009.4 319.4Z" fill="#111218"/>
</g>
<defs>
<linearGradient id="paint0_linear_1_426" x1="-3.22316e-06" y1="320.8" x2="540" y2="320.8" gradientUnits="userSpaceOnUse">
<stop stop-color="#6F110B"/>
<stop offset="0.375" stop-color="#965F17"/>
<stop offset="1" stop-color="#84CD4B"/>
</linearGradient>
<linearGradient id="paint1_linear_1_426" x1="-3.22316e-06" y1="320.8" x2="540" y2="320.8" gradientUnits="userSpaceOnUse">
<stop stop-color="#6F110B"/>
<stop offset="0.375" stop-color="#965F17"/>
<stop offset="1" stop-color="#84CD4B"/>
</linearGradient>
<linearGradient id="paint2_linear_1_426" x1="-3.22316e-06" y1="320.8" x2="540" y2="320.8" gradientUnits="userSpaceOnUse">
<stop stop-color="#6F110B"/>
<stop offset="0.375" stop-color="#965F17"/>
<stop offset="1" stop-color="#84CD4B"/>
</linearGradient>
<linearGradient id="paint3_linear_1_426" x1="-3.22316e-06" y1="320.8" x2="540" y2="320.8" gradientUnits="userSpaceOnUse">
<stop stop-color="#6F110B"/>
<stop offset="0.375" stop-color="#965F17"/>
<stop offset="1" stop-color="#84CD4B"/>
</linearGradient>
<linearGradient id="paint4_linear_1_426" x1="-3.22316e-06" y1="320.8" x2="540" y2="320.8" gradientUnits="userSpaceOnUse">
<stop stop-color="#6F110B"/>
<stop offset="0.375" stop-color="#965F17"/>
<stop offset="1" stop-color="#84CD4B"/>
</linearGradient>
<clipPath id="clip0_1_426">
<rect width="540" height="540" fill="white" transform="translate(0 50.7998)"/>
</clipPath>
<clipPath id="clip1_1_426">
<rect width="2306.98" height="618.6" fill="white" transform="translate(740 23)"/>
</clipPath>
</defs>
</svg>
